<?xml version="1.0" encoding="UTF-8" standalone="no"?>
<!DOCTYPE svg PUBLIC "-//W3C//DTD SVG 1.1//EN"
 "http://www.w3.org/Graphics/SVG/1.1/DTD/svg11.dtd">
<!-- Generated by graphviz version 2.38.0 (20140413.2041)
 -->
<!-- Title: goActorBinaryTree Pages: 1 -->
<svg width="1379pt" height="116pt"
 viewBox="0.00 0.00 1378.60 116.00" xmlns="http://www.w3.org/2000/svg" xmlns:xlink="http://www.w3.org/1999/xlink">
<g id="graph0" class="graph" transform="scale(1 1) rotate(0) translate(4 112)">
<title>goActorBinaryTree</title>
<polygon fill="white" stroke="none" points="-4,4 -4,-112 1374.6,-112 1374.6,4 -4,4"/>
<!-- contains -->
<g id="node1" class="node"><title>contains</title>
<ellipse fill="none" stroke="black" cx="39.5778" cy="-90" rx="39.6558" ry="18"/>
<text text-anchor="middle" x="39.5778" y="-85.8" font-family="Times,serif" font-size="14.00">contains</text>
</g>
<!-- operation -->
<g id="node2" class="node"><title>operation</title>
<ellipse fill="none" stroke="black" cx="231.578" cy="-18" rx="43.506" ry="18"/>
<text text-anchor="middle" x="231.578" y="-13.8" font-family="Times,serif" font-size="14.00">operation</text>
</g>
<!-- contains&#45;&gt;operation -->
<g id="edge1" class="edge"><title>contains&#45;&gt;operation</title>
<path fill="none" stroke="black" d="M69.5778,-78.0625C101.97,-66.2529 153.793,-47.3592 190.079,-34.1297"/>
<polygon fill="black" stroke="black" points="191.677,-37.2727 199.873,-30.5591 189.279,-30.6961 191.677,-37.2727"/>
</g>
<!-- operationReply -->
<g id="node8" class="node"><title>operationReply</title>
<ellipse fill="none" stroke="black" cx="395.578" cy="-18" rx="64.7545" ry="18"/>
<text text-anchor="middle" x="395.578" y="-13.8" font-family="Times,serif" font-size="14.00">operationReply</text>
</g>
<!-- contains&#45;&gt;operationReply -->
<g id="edge7" class="edge"><title>contains&#45;&gt;operationReply</title>
<path fill="none" stroke="black" d="M69.1397,-77.8756C75.4937,-75.7296 82.213,-73.6418 88.5778,-72 133.187,-60.493 254.368,-40.8317 330.461,-28.9638"/>
<polygon fill="black" stroke="black" points="331.083,-32.4092 340.426,-27.4138 330.007,-25.4923 331.083,-32.4092"/>
</g>
<!-- gc -->
<g id="node3" class="node"><title>gc</title>
<ellipse fill="none" stroke="black" cx="124.578" cy="-90" rx="27" ry="18"/>
<text text-anchor="middle" x="124.578" y="-85.8" font-family="Times,serif" font-size="14.00">gc</text>
</g>
<!-- gc&#45;&gt;operation -->
<g id="edge2" class="edge"><title>gc&#45;&gt;operation</title>
<path fill="none" stroke="black" d="M143.216,-76.8069C159.033,-66.4594 182.05,-51.4012 200.628,-39.2477"/>
<polygon fill="black" stroke="black" points="202.622,-42.1259 209.074,-33.7223 198.789,-36.268 202.622,-42.1259"/>
</g>
<!-- gc&#45;&gt;operationReply -->
<g id="edge9" class="edge"><title>gc&#45;&gt;operationReply</title>
<path fill="none" stroke="black" d="M145.195,-78.3177C150.147,-76.0182 155.48,-73.7546 160.578,-72 216.881,-52.6203 283.244,-38.4037 331.062,-29.6014"/>
<polygon fill="black" stroke="black" points="331.759,-33.0323 340.974,-27.8054 330.511,-26.1445 331.759,-33.0323"/>
</g>
<!-- getElems -->
<g id="node4" class="node"><title>getElems</title>
<ellipse fill="none" stroke="black" cx="212.578" cy="-90" rx="43.0301" ry="18"/>
<text text-anchor="middle" x="212.578" y="-85.8" font-family="Times,serif" font-size="14.00">getElems</text>
</g>
<!-- getElems&#45;&gt;operation -->
<g id="edge3" class="edge"><title>getElems&#45;&gt;operation</title>
<path fill="none" stroke="black" d="M217.177,-72.055C219.293,-64.2609 221.855,-54.8219 224.228,-46.0789"/>
<polygon fill="black" stroke="black" points="227.647,-46.843 226.889,-36.2753 220.891,-45.0093 227.647,-46.843"/>
</g>
<!-- getElems&#45;&gt;operationReply -->
<g id="edge10" class="edge"><title>getElems&#45;&gt;operationReply</title>
<path fill="none" stroke="black" d="M243.208,-77.2836C272.287,-66.1605 316.376,-49.2956 349.659,-36.5644"/>
<polygon fill="black" stroke="black" points="351.085,-39.7663 359.175,-32.9246 348.585,-33.2283 351.085,-39.7663"/>
</g>
<!-- copyInsert -->
<g id="node5" class="node"><title>copyInsert</title>
<ellipse fill="none" stroke="black" cx="320.578" cy="-90" rx="47.365" ry="18"/>
<text text-anchor="middle" x="320.578" y="-85.8" font-family="Times,serif" font-size="14.00">copyInsert</text>
</g>
<!-- copyInsert&#45;&gt;operation -->
<g id="edge4" class="edge"><title>copyInsert&#45;&gt;operation</title>
<path fill="none" stroke="black" d="M300.826,-73.4647C288.527,-63.7916 272.531,-51.21 259.011,-40.5766"/>
<polygon fill="black" stroke="black" points="260.992,-37.6821 250.968,-34.251 256.665,-43.1842 260.992,-37.6821"/>
</g>
<!-- copyInsert&#45;&gt;operationReply -->
<g id="edge11" class="edge"><title>copyInsert&#45;&gt;operationReply</title>
<path fill="none" stroke="black" d="M337.597,-73.1159C347.265,-64.0922 359.553,-52.6231 370.326,-42.5681"/>
<polygon fill="black" stroke="black" points="372.922,-44.9335 377.844,-35.5516 368.145,-39.8161 372.922,-44.9335"/>
</g>
<!-- insert -->
<g id="node6" class="node"><title>insert</title>
<ellipse fill="none" stroke="black" cx="415.578" cy="-90" rx="29.5104" ry="18"/>
<text text-anchor="middle" x="415.578" y="-85.8" font-family="Times,serif" font-size="14.00">insert</text>
</g>
<!-- insert&#45;&gt;operation -->
<g id="edge5" class="edge"><title>insert&#45;&gt;operation</title>
<path fill="none" stroke="black" d="M392.164,-78.52C387.052,-76.3085 381.652,-74.0311 376.578,-72 342.038,-58.1744 302.324,-43.7596 273.202,-33.4594"/>
<polygon fill="black" stroke="black" points="274.349,-30.1529 263.754,-30.1309 272.023,-36.7551 274.349,-30.1529"/>
</g>
<!-- insert&#45;&gt;operationReply -->
<g id="edge12" class="edge"><title>insert&#45;&gt;operationReply</title>
<path fill="none" stroke="black" d="M410.736,-72.055C408.51,-64.2609 405.813,-54.8219 403.315,-46.0789"/>
<polygon fill="black" stroke="black" points="406.626,-44.929 400.514,-36.2753 399.896,-46.8521 406.626,-44.929"/>
</g>
<!-- remove -->
<g id="node7" class="node"><title>remove</title>
<ellipse fill="none" stroke="black" cx="499.578" cy="-90" rx="36.7489" ry="18"/>
<text text-anchor="middle" x="499.578" y="-85.8" font-family="Times,serif" font-size="14.00">remove</text>
</g>
<!-- remove&#45;&gt;operation -->
<g id="edge6" class="edge"><title>remove&#45;&gt;operation</title>
<path fill="none" stroke="black" d="M472.165,-78.0074C466.402,-75.8766 460.327,-73.7613 454.578,-72 395.328,-53.8489 325.646,-38.1691 280.148,-28.6703"/>
<polygon fill="black" stroke="black" points="280.756,-25.2222 270.254,-26.6228 279.337,-32.0769 280.756,-25.2222"/>
</g>
<!-- remove&#45;&gt;operationReply -->
<g id="edge14" class="edge"><title>remove&#45;&gt;operationReply</title>
<path fill="none" stroke="black" d="M478.532,-74.8345C463.874,-64.9688 444.058,-51.6307 427.469,-40.465"/>
<polygon fill="black" stroke="black" points="429.383,-37.5343 419.132,-34.854 425.474,-43.3414 429.383,-37.5343"/>
</g>
<!-- containsResult -->
<g id="node9" class="node"><title>containsResult</title>
<ellipse fill="none" stroke="black" cx="616.578" cy="-90" rx="62.3581" ry="18"/>
<text text-anchor="middle" x="616.578" y="-85.8" font-family="Times,serif" font-size="14.00">containsResult</text>
</g>
<!-- containsResult&#45;&gt;operationReply -->
<g id="edge8" class="edge"><title>containsResult&#45;&gt;operationReply</title>
<path fill="none" stroke="black" d="M576.3,-76.2423C539.802,-64.6819 485.852,-47.5936 446.4,-35.0976"/>
<polygon fill="black" stroke="black" points="447.292,-31.7088 436.702,-32.0258 445.178,-38.382 447.292,-31.7088"/>
</g>
<!-- operationFinished -->
<g id="node10" class="node"><title>operationFinished</title>
<ellipse fill="none" stroke="black" cx="770.578" cy="-90" rx="73.9344" ry="18"/>
<text text-anchor="middle" x="770.578" y="-85.8" font-family="Times,serif" font-size="14.00">operationFinished</text>
</g>
<!-- operationFinished&#45;&gt;operationReply -->
<g id="edge13" class="edge"><title>operationFinished&#45;&gt;operationReply</title>
<path fill="none" stroke="black" d="M716.144,-77.6687C706.63,-75.7402 696.821,-73.7851 687.578,-72 608.912,-56.8066 518.073,-40.5153 458.876,-30.066"/>
<polygon fill="black" stroke="black" points="459.384,-26.6017 448.928,-28.3125 458.169,-33.4954 459.384,-26.6017"/>
</g>
<!-- BinaryTreeSet -->
<g id="node11" class="node"><title>BinaryTreeSet</title>
<ellipse fill="none" stroke="black" cx="923.578" cy="-90" rx="61.2342" ry="18"/>
<text text-anchor="middle" x="923.578" y="-85.8" font-family="Times,serif" font-size="14.00">BinaryTreeSet</text>
</g>
<!-- binaryTreeNode -->
<g id="node12" class="node"><title>binaryTreeNode</title>
<ellipse fill="none" stroke="black" cx="1070.58" cy="-90" rx="67.9905" ry="18"/>
<text text-anchor="middle" x="1070.58" y="-85.8" font-family="Times,serif" font-size="14.00">binaryTreeNode</text>
</g>
<!-- replyTracker -->
<g id="node13" class="node"><title>replyTracker</title>
<ellipse fill="none" stroke="black" cx="1211.58" cy="-90" rx="55.4196" ry="18"/>
<text text-anchor="middle" x="1211.58" y="-85.8" font-family="Times,serif" font-size="14.00">replyTracker</text>
</g>
<!-- testProbe -->
<g id="node14" class="node"><title>testProbe</title>
<ellipse fill="none" stroke="black" cx="1327.58" cy="-90" rx="43.0387" ry="18"/>
<text text-anchor="middle" x="1327.58" y="-85.8" font-family="Times,serif" font-size="14.00">testProbe</text>
</g>
</g>
</svg>
